<svg xmlns="http://www.w3.org/2000/svg" width="400" height="400"><g fill="#215b7d"><path d="M34.073 262.014q4.935-4.935 5.226-8.213a1.34 1.34 0 0 0-.415-1.078q-.746-.746-4.52-1.659-3.776-.912-4.853-1.991-4.356-4.355 1.41-10.12 2.115-2.115 5.267-2.448 3.526-.372 5.973 2.074 1.245 1.245.332 4.065-.912 2.82.29 4.023 1.245 1.245 3.256 1.39t3.298-1.14q2.696-2.697 3.317-3.65 2.116-2.946.498-4.73-.248-.33-.974-.393-.726-.062-.975-.311-.414-.415-1.244-3.277t-2.78-4.811q-5.805-5.808-15.553-4.19-8.835 1.452-14.85 7.466-5.846 5.849-6.428 13.895-.58 8.462 5.101 14.144 4.356 4.355 9.167 4.77 5.143.498 9.457-3.816M38.543 269.12q-5.992 5.992-6.496 12.74-.603 7.15 5.287 13.04 5.035 5.036 13.293 4.029 7.705-.856 12.84-5.992 5.69-5.69 7.25-13.293 1.713-8.56-3.675-13.948-5.286-5.287-14.602-3.625-8.41 1.56-13.897 7.05m16.717 13.394q-.806.805-1.913.856-1.109.05-1.864-.705-1.912-1.914-.252-5.59 1.26-2.768 3.576-5.085 1.308-1.309 2.92-1.913 2.014-.806 3.172.352 1.662 1.662-1.158 6.294-1.965 3.273-4.481 5.79M79.587 278.894q-1.442 1.412-1.145 2.719l.595 2.612q.098 2.483-4.851 7.335-.126.123-.127.247l-.314.307q-3.76 3.686-11.572 9.317-7.815 5.63-12.43 8.066-.748.364-2.86.592-1.677.168-2.491.968-3.51 3.44-1.576 8.547 1.328 3.736 5.198 7.684 10.196 10.404 16.275 4.444.752-.736 1.118-3.183.365-2.448.746-3.313 2.848-5.494 8.2-13.321 5.857-8.565 9.68-12.313l.877-.86 13.878-10.162q2.813-2.02.908-3.962-4.484-4.575-11.91-6.635-5.692-1.545-8.2.91M105.355 294.183q-1.215 2.062-.47 3.465l1.485 2.805q.88 2.812-3.288 9.892-.105.179-.068.322l-.264.447q-3.165 5.379-10.37 14.233-7.2 8.853-11.734 13.065-.743.649-3.09 1.56-1.866.711-2.552 1.877-2.955 5.018.835 10.266 2.672 3.867 8.32 7.19 14.876 8.759 19.995.064.632-1.075.296-3.988t-.167-4.022q1.563-7.164 5.273-17.773 4.059-11.61 7.277-17.078l.738-1.255 12.745-15.91q2.596-3.18-.183-4.814-6.543-3.852-15.676-3.918-6.992-.012-9.102 3.572"/><path d="M152.133 356.243q-4.6-1.202-7.863-6.41-3.263-5.21-2.627-9.886.23-1.702.868-3.203 1.263-1.85 3.247-1.58 1.134.154 2.597 1.075 5.04 3.284 13.12 4.382 6.946.943 11.771-.566 5.431-1.716 6.067-6.394 1.522-11.2-5.51-18.94-6.525-7.24-18.007-8.8-15.877-2.158-27.99 10.49-10.807 11.523-13.042 27.968-2.176 16.019 4.561 28.052 7.416 13.423 23.01 15.543 12.19 1.656 22.12-5.007 9.929-6.664 11.566-18.713.54-3.97-2.01-6.986-2.55-3.018-6.519-3.557-2.125-.29-5.94 1.214-4.257 1.586-6.584 1.704zm1.156-38.247q2.977.405 4.904 2.689 1.927 2.282 1.504 5.4-.346 2.552-2.067 2.463-.625.347-9.84-.903-5.245-.714-4.878-3.407.462-3.402 3.647-5.063 3.186-1.66 6.73-1.179M218.726 361.04q-4.731.56-9.332-3.556-4.6-4.115-5.161-8.846-.593-5.001 2.047-9.908 2.64-4.904 7.37-5.465 3.11-.368 7.622 3.003t7.486 3.02q3.515-.417 5.174-3.767 1.318-2.76.87-6.546-.979-8.246-8.72-12.263-6.867-3.572-15.518-2.547-16.222 1.923-24.4 16.19-7.377 12.937-5.39 29.7 1.764 14.871 10.957 24.198 10.118 10.179 24.582 8.464 11.625-1.379 19.185-9.883t6.197-19.994q-.449-3.786-3.517-5.958t-6.852-1.724q-2.028.241-5.76 2.876-3.73 2.636-6.84 3.005M292.554 355.354q-1.125-3.295-3.443-3.395a92 92 0 0 0-4.654-.085q-3.138-.377-8.464-8.48-4.584-6.906-6.049-11.199-2.28-6.688 3.11-8.527.5-.17 1.531-.411.999-.341 1.498-.51 3.892-1.33 2.565-5.222-1.465-4.293-3.76-3.51-.399.137-1.363.577t-1.464.61q-2.795.954-5.41-.829-1.608-1.123-2.664-4.218l-.647-1.896q-.342-1.333-.547-1.932-2.043-5.99-8.532-3.776-3.693 1.26-4.607 4.135-.49 1.504-.358 6.14t-.816 7.41q-.587 1.871-3.582 2.894l-.899.307a6 6 0 0 0-.932.206q-2.496.85-3.188 2.09-1.055 1.808.37 5.334 1.19 3.161 3.657 2.877a957 957 0 0 0 4.229-.997q2.502.15 3.967 4.443 1.532 4.491 2.663 13.69t2.596 13.491q5.31 15.574 21.783 9.955 6.49-2.213 10.591-7.177 4.895-5.905 2.819-11.995M301.375 295.777q-1.11-2.485-4.233-2.806-2.605-.374-5.316.838-3.237 1.445-5.526 4.815-2.714 3.831-1.403 6.768 1.245 2.785 4.318 3.4 2.639.447 5.574-.864 3.39-1.512 5.534-5 2.497-3.914 1.052-7.151m-10.932 26.283q.774 1.732 1.946 1.931t2.387.288q1.29.87 2.07 1.605a19.6 19.6 0 0 1 2.713 4.659q2.194 5.521 2.236 12.592.041 7.072.276 7.597 1.749 3.916 6.915 3.957 3.985.027 8.428-1.957 4.216-1.881 7.083-4.968 3.609-4.05 1.962-7.74-.067-.15-6.323-6.477-6.257-6.328-8.308-10.921-.975-2.183-1.959-6.711-.983-4.528-1.924-6.637-.304-1.49-2.378-2.595-2.073-1.106-3.505-.467-4.367 1.95-8.528 6.788-4.705 5.442-3.09 9.056M322.757 303.29q.792.096 4.161 2.123 23.316 12.044 27.304 7.905.776-.805 1.31-2.395.428-1.25-5.637-14.745-7.127-15.845-7.367-16.631-.415-1.065-.672-5.746-.184-3.837-1.564-5.166-3.507-3.378-9.156 2.486-2.437 2.53-3.516 5.26-1.344 3.581.84 5.686.805.776 3.023 1.694 2.22.918 3.025 1.694 1.264 1.219 2.154 3.517 1.064 2.577.012 3.67-.998 1.035-3.612.067-2.16-.864-3.312-1.971-.69-.665-3.513-3.718t-3.57-3.773q-2.358-2.27-5.626 1.121-.886.92-1.71 2.121-3.196 4.238-4.509 9.57-1.313 5.33.988 7.546 1.207 1.163 2.391 1.085.113-.003 2.022-.602 3.985-1.26 6.534-.799M368.287 263.244q-1.659 1.569-4.612 1.575-2.952.005-4.696-1.444a6 6 0 0 1-1.085-1.168q-.433-.986.181-1.725.352-.423 1.099-.785 2.62-1.22 5.123-4.233 2.15-2.59 2.763-4.941.682-2.65-1.064-4.099-4.177-3.468-9.12-2.57-4.61.817-8.166 5.1-4.916 5.922-2.843 14.075 1.948 7.335 8.082 12.428 5.975 4.96 12.592 5.274 7.357.391 12.187-5.424 3.774-4.548 3.584-10.289t-4.685-9.472q-1.48-1.23-3.358-.958t-3.108 1.753q-.657.792-1.015 2.729-.437 2.139-.98 3.117zm-15.293-10.197a3.62 3.62 0 0 1 2.343-1.315q1.421-.205 2.584.76.951.79.477 1.47-.016.342-2.87 3.78-1.625 1.955-2.63 1.121-1.268-1.053-1.134-2.774a5.3 5.3 0 0 1 1.23-3.042M41.492 181.95q-7.07-2.504-10.384-1.269-.622.248-.853.901-.38 1.069.482 5.153t.314 5.628q-2.21 6.239-10.468 3.314-3.03-1.073-4.81-3.977-1.994-3.246-.752-6.752.63-1.783 3.789-2.203 3.157-.42 3.767-2.143.631-1.782-.158-3.8-.79-2.019-2.632-2.67-3.862-1.368-5.075-1.53-3.835-.69-4.816 1.704-.207.396.068 1.128.274.733.15 1.09-.211.593-2.603 2.722t-3.381 4.921q-2.945 8.319 3.133 17.024 5.496 7.897 14.111 10.948 8.377 2.967 16.45-.193 8.475-3.351 11.359-11.492 2.208-6.239.384-11.097-1.895-5.219-8.075-7.407M24.95 173.246q8.83 3.99 16.251 1.802 7.893-2.242 11.815-10.925 3.352-7.42-1.062-15.847-4.027-7.895-11.597-11.314-8.385-3.787-17.149-2.386-9.848 1.628-13.435 9.567-3.519 7.792 2.02 17.085 5.069 8.365 13.157 12.018m7.573-23.293q1.188.536 1.689 1.7.502 1.165-.001 2.278-1.275 2.82-5.877 2.528-3.472-.228-6.885-1.77-1.929-.872-3.226-2.35-1.677-1.83-.905-3.537 1.107-2.448 7.2-1.304 4.296.779 8.005 2.455M30.912 117.105q1.904.452 2.804.39 2.266 1.01 5.622 3.817 2.946 3.417 7.475 11.12 4.092 6.957 5.465 8.155 3.228 2.817 6.553 1.363 2.261-.93 5.498-4.638 4.016-4.601 4.073-9.45.057-4.85-4.612-8.924-1.785-1.559-7.034-4.625-5.247-3.067-7.72-5.225-3.983-3.476-4.97-4.7-2.69-3.435-.652-5.77 2.996-3.435 10.826 3.398.48.42 11.326 11.697.766.788 1.705 2.759.942 1.97 1.698 2.63 3.09 2.696 7.067 1.328 3.421-1.008 6.236-4.236 9.17-10.508 4.912-14.223-1.442-1.259-12.218-5.824-10.777-4.563-15.378-8.579-6.32-5.513-6.997-5.983-3.39-2.354-6.185-1.647-3.368.81-7.743 5.825-2.877 3.296-3.241 6.486a428 428 0 0 0-.24 6.929q-.032.454-.212.66-.48.55-1.758-.203-.747-.53-1.09-.83-2.216-2.175-3.893-.252-2.938 3.366-4.171 9.91-1.141 6.021 1.537 8.358 1.443 1.258 2.917 1.093.514-.035 2.4-.809M160.338 46.883q-3.801.58-7.89-2.244-4.09-2.824-5.115-6.5a10 10 0 0 1-.38-2.657q.345-1.777 1.905-2.212.892-.249 2.272-.033 4.794.826 11.146-.945 5.46-1.522 8.56-4.188 3.484-3.012 2.459-6.69-2.454-8.804-10.154-12.3-7.161-3.289-16.188-.773-12.48 3.48-17.429 16.748-4.335 12.016-.733 24.943 3.51 12.593 12.365 19.371 9.803 7.596 22.061 4.179 9.583-2.672 14.824-10.797 5.241-8.127 2.6-17.598-.869-3.12-3.728-4.545t-5.98-.555q-1.67.465-4.022 2.802-2.654 2.54-4.344 3.373zM148.956 18.11q2.34-.651 4.502.427t2.846 3.53q.558 2.005-.748 2.49-.353.458-7.595 2.478-4.124 1.15-4.714-.968-.745-2.674 1.089-4.927a8.9 8.9 0 0 1 4.62-3.03M222.23 46.313q-4.224-.8-7.067-5.59t-2.042-9.013q.847-4.466 4.45-7.97 3.601-3.507 7.825-2.705 2.775.526 5.744 4.652 2.97 4.125 5.624 4.628 3.137.596 5.474-1.837 1.882-2.019 2.523-5.398 1.395-7.361-4.177-12.918-4.94-4.937-12.663-6.401-14.482-2.745-25.39 7.314-9.858 9.133-12.694 24.097-2.517 13.275 2.865 23.797 5.946 11.504 18.859 13.95 10.379 1.968 19.19-3.3t10.757-15.526q.64-3.379-1.41-6.08t-5.43-3.342q-1.81-.344-5.736.912-3.927 1.257-6.702.73M273.089 84.56q1.586-3.082.056-4.815a93 93 0 0 0-3.154-3.395q-1.897-2.511.233-11.928 1.785-8.06 3.852-12.074 3.22-6.257 8.263-3.661.467.24 1.353.814l1.4.72q3.643 1.874 5.517-1.767 2.067-4.015-.08-5.121-.375-.192-1.356-.58a18 18 0 0 1-1.449-.627q-2.614-1.345-3.142-4.452-.307-1.93 1.184-4.824l.913-1.775q.718-1.165 1.007-1.726 2.883-5.604-3.186-8.728-3.455-1.778-6.149-.447-1.418.688-4.65 3.985t-5.877 4.534q-1.75.873-4.55-.569l-.84-.433a6.4 6.4 0 0 0-.793-.526q-2.335-1.2-3.701-.842-2.025.494-3.57 3.951-1.443 3.037.463 4.609 1.772 1.148 3.637 2.345 1.622 1.897-.445 5.913-2.163 4.201-7.978 11.368-5.814 7.166-7.88 11.181-7.5 14.568 7.91 22.5 6.069 3.123 12.463 2.634 7.617-.569 10.549-6.264M331.69 61.541q1.987-2.07 1.06-5.249-.67-2.692-2.93-4.86-2.697-2.588-6.897-3.485-4.82-1.131-7.168 1.317-2.227 2.322-1.608 5.567.611 2.755 3.058 5.103 2.823 2.709 7.081 3.42 4.815.885 7.403-1.813m-30.015-.241q-1.386 1.443-1.114 2.668.272 1.223.666 2.446-.336 1.605-.746 2.66a20.6 20.6 0 0 1-3.473 4.5q-4.523 4.335-11.413 7.184-6.89 2.847-7.312 3.287-3.13 3.263-1.12 8.325 1.556 3.904 5.259 7.456 3.513 3.37 7.666 4.946 5.39 1.918 8.34-1.156.12-.126 3.816-8.75 3.697-8.625 7.37-12.452 1.744-1.819 5.778-4.578 4.032-2.758 5.717-4.515 1.334-.888 1.592-3.353.256-2.466-.935-3.61-3.64-3.491-10.018-5.634-7.184-2.435-10.073.576M320.51 80.968q-9.127 6.052-11.496 14.47-2.6 8.902 3.35 17.876 5.086 7.67 15.805 8.513 9.979.892 17.802-4.296 8.667-5.747 12.595-14.978 4.365-10.404-1.078-18.61-5.34-8.055-17.566-8.34-11.052-.18-19.412 5.365m17.739 21.255q-1.227.813-2.644.593-1.416-.22-2.178-1.37-1.934-2.916 1.114-7.145 2.305-3.185 5.834-5.525 1.994-1.322 4.19-1.674 2.758-.504 3.928 1.26 1.68 2.532-3.082 7.676-3.327 3.642-7.162 6.185M368.934 121.053q-1.46 1.162-1.945 1.873-2.09 1.104-6.172 1.967-4.296.195-12.74-.944-7.626-1.03-9.334-.706-4.013.762-4.88 4.11-.637 2.244.239 6.855 1.085 5.72 4.687 8.62 3.601 2.899 9.407 1.797 2.22-.42 7.61-2.55 5.391-2.127 8.465-2.711 4.952-.94 6.452-.959 4.158.007 4.71 2.91.81 4.27-8.924 6.116-.598.114-15.442 1.603-1.04.109-3.073-.346-2.031-.454-2.972-.276-3.84.729-5.157 4.517-1.259 3.157-.497 7.17 2.479 13.065 7.773 12.06 1.792-.34 11.561-5.732t15.49-6.478q7.854-1.49 8.607-1.721 3.761-1.155 4.877-3.668 1.375-3.003.193-9.236-.777-4.099-2.955-6.25a404 404 0 0 0-5.054-4.26q-.322-.294-.37-.55-.13-.682 1.189-1.198.837-.247 1.263-.328 2.937-.38 2.483-2.771-.795-4.185-4.974-8.963-3.842-4.402-7.173-3.77-1.792.34-2.538 1.543-.276.406-.806 2.276M380.123 171.132q-5.01.848-9.49 6.347t-7.085 5.94q-3.81.645-4.452-3.162-.153-.903.235-2.565.389-1.664.236-2.566-.543-3.205-5.051-2.443-19.037 3.222-15.579 23.663 1.274 7.514 7.167 12.495 6.26 5.33 13.775 4.058 9.119-1.543 14.097-8.055 2.365-3.08 5.502-11.34 2.29-5.954 4.995-6.412 1.202-.202 2.232.705t1.233 2.11q.306 1.803-3.295 4.887t-3.126 5.888q.967 5.711 4.875 5.05 3.306-.56 7.068-5.731 4.896-6.395 3.454-14.911-1.153-6.814-5.523-10.712-4.656-4.365-11.268-3.246"/><path d="M73.162 66.487q1.854 1.035 2.813 1.239 2.066 1.724 4.738 5.649 2.064 4.44 4.512 13.823 2.21 8.476 3.29 10.134 2.536 3.897 6.438 3.363 2.637-.298 7.114-3.213 5.555-3.615 7.052-8.66 1.496-5.047-2.173-10.684-1.404-2.157-5.973-6.912-4.572-4.757-6.514-7.74-3.13-4.81-3.798-6.382-1.79-4.38 1.03-6.216 4.145-2.699 10.295 6.754.379.58 8.362 15.567.564 1.05.964 3.386.399 2.336.993 3.248 2.427 3.73 6.985 3.48 3.87-.04 7.766-2.576 12.685-8.256 9.34-13.395-1.133-1.742-11.033-9.699T111.85 44.142q-4.965-7.628-5.533-8.32-2.843-3.46-5.97-3.55-3.756-.153-9.809 3.787-3.979 2.59-5.305 5.813a447 447 0 0 0-2.301 7.163q-.17.465-.42.626-.66.432-1.775-.732a16 16 0 0 1-.891-1.19q-1.67-2.928-3.99-1.417-4.065 2.644-7.29 9.112-2.975 5.948-.87 9.181 1.132 1.742 2.722 2.006.547.115 2.745-.134"/></g></svg>