<?xml version="1.0" encoding="utf-8" ?>	<!-- Generator: Assembly 2.4 - http://assemblyapp.co -->	<svg version="1.1" xmlns="http://www.w3.org/2000/svg" xmlns:xlink="http://www.w3.org/1999/xlink" width="300.00" height="300.00" viewBox="0 0 250.0 250.0">		<g id="document" transform="scale(0.06103515625 0.06103515625) translate(2048.0 2048.0)">			<g>				<defs>					<filter id="wWsi3PxW" x="-4.29%" y="-3.78%" width="112.87%" height="112.36%" filterUnits="objectBoundingBox">						<feOffset dx="0.00" dy="4.97" in="SourceAlpha" result="shadowOffsetOuter1" />						<feGaussianBlur stdDeviation="21.09" in="shadowOffsetOuter1" result="shadowBlurOuter1" />						<feFlood flood-color="#000000" flood-opacity="0.50" />						<feComposite in2="shadowBlurOuter1" operator="in" />						<feMerge>							<feMergeNode />							<feMergeNode in="SourceGraphic" />						</feMerge>					</filter>				</defs>				<path d="M9.43108,598.104 C263.993,503.337 393.351,220.546 298.584,-34.0157 C203.817,-288.578 -78.9731,-417.936 -333.535,-323.169 C-588.098,-228.402 -717.456,54.3885 -622.689,308.951 C-527.922,563.513 -245.131,692.871 9.43108,598.104 Z " fill="#d191ef" fill-opacity="1.00" filter="url(#wWsi3PxW)" />				<defs>					<filter id="qUHKtqMA" x="-5.28%" y="-4.78%" width="115.84%" height="115.61%" filterUnits="objectBoundingBox">						<feOffset dx="0.00" dy="23.54" in="SourceAlpha" result="shadowOffsetOuter1" />						<feGaussianBlur stdDeviation="99.84" in="shadowOffsetOuter1" result="shadowBlurOuter1" />						<feFlood flood-color="#000000" flood-opacity="0.50" />						<feComposite in2="shadowBlurOuter1" operator="in" />						<feMerge>							<feMergeNode />							<feMergeNode in="SourceGraphic" />						</feMerge>					</filter>				</defs>				<path d="M-1891.4,-606.419 C-1891.4,-606.419 -1608.37,-484.312 -1383.06,-59.1535 C-1287,122.607 -1148.5,222.159 -1015.21,285.303 C-1780.57,831.564 -1329.61,1688.53 -1329.61,1688.53 C-1329.61,1688.53 -1146,1499.02 -662.495,1370.73 C-458.725,1313.54 -295.82,1175.11 -194.896,1063.21 C57.7064,1823.71 1008.07,1761.37 1008.07,1761.37 C1008.07,1761.37 892.187,1453.93 922.416,1005.6 C938.387,798.054 903.211,633.159 829.845,503.575 C1665.02,470.512 1891.4,-441.389 1891.4,-441.389 C1891.4,-441.389 1562.7,-414.437 1144.26,-576.24 C947.273,-646.102 786.628,-657.824 637.845,-633.481 C847.978,-1407.84 77.7933,-1924.93 77.7933,-1924.93 C77.7933,-1924.93 37.2769,-1676.12 -271.802,-1333.43 C-479.956,-1102.64 -480.501,-919.233 -506.553,-777.854 C-1164.5,-1187.37 -1891.4,-606.419 -1891.4,-606.419 Z M112.933,-79.6137 C228.327,24.4637 267,192.512 156.615,314.901 C46.2301,437.289 -147.735,490.635 -263.13,386.558 C-378.525,282.48 -426.249,68.2197 -312.71,-57.6653 C-208.975,-179.711 -2.4618,-183.691 112.933,-79.6137 Z " fill="#f26b3a" fill-opacity="1.00" filter="url(#qUHKtqMA)" />			</g>		</g>	</svg>