<?xml version="1.0" encoding="utf-8" ?>	<!-- Generator: Assembly 2.4 - http://assemblyapp.co -->	<svg version="1.1" xmlns="http://www.w3.org/2000/svg" xmlns:xlink="http://www.w3.org/1999/xlink" width="50.00" height="50.00" viewBox="0 0 250.0 250.0">		<g id="document" transform="scale(0.06103515625 0.06103515625) translate(2048.0 2048.0)">			<defs>				<filter id="9szUSMuf" x="-4.31%" y="-4.02%" width="114.08%" height="113.79%" filterUnits="objectBoundingBox">					<feOffset dx="8.72" dy="13.08" in="SourceAlpha" result="shadowOffsetOuter1" />					<feGaussianBlur stdDeviation="36.97" in="shadowOffsetOuter1" result="shadowBlurOuter1" />					<feFlood flood-color="#000000" flood-opacity="0.36" />					<feComposite in2="shadowBlurOuter1" operator="in" />					<feMerge>						<feMergeNode />						<feMergeNode in="SourceGraphic" />					</feMerge>				</filter>			</defs>			<path d="M-707.038,-270.195 C-646.972,-683.857 -262.94,-970.504 150.722,-910.438 C564.384,-850.373 851.031,-466.34 790.965,-52.6783 C730.899,360.984 346.867,647.63 -66.7948,587.565 C-480.457,527.499 -767.103,143.467 -707.038,-270.195 Z " fill="#f2e689" fill-opacity="1.00" filter="url(#9szUSMuf)" />			<defs>				<filter id="N1zGdBXT" x="-4.86%" y="-4.48%" width="115.87%" height="115.36%" filterUnits="objectBoundingBox">					<feOffset dx="23.07" dy="34.60" in="SourceAlpha" result="shadowOffsetOuter1" />					<feGaussianBlur stdDeviation="97.81" in="shadowOffsetOuter1" result="shadowBlurOuter1" />					<feFlood flood-color="#000000" flood-opacity="0.36" />					<feComposite in2="shadowBlurOuter1" operator="in" />					<feMerge>						<feMergeNode />						<feMergeNode in="SourceGraphic" />					</feMerge>				</filter>			</defs>			<path d="M368.864,-1299.82 C375.179,-1273.67 380.115,-1243.12 383.672,-1208.16 C416.716,-1236.49 438.196,-1258.77 448.113,-1275 C571.48,-1391.08 742.699,-1443.82 911.961,-1444 C1082.87,-1433.99 1235.85,-1366.74 1350.55,-1238.97 C1502.37,-1075.4 1556.45,-831.251 1490.27,-619.919 C1457.18,-514.253 1397.68,-416.859 1307.09,-343.703 C1286.99,-325.825 1265.51,-303.544 1235.22,-284.021 C1273.2,-281.797 1299.62,-273.525 1326.03,-265.253 C1665.04,-159.095 1852.54,199.353 1746.38,538.365 C1640.22,877.376 1277.37,1063.49 947.163,960.089 C920.747,951.817 894.331,943.545 861.866,923.71 C874.229,961.423 879.165,991.975 886.859,1013.72 C910.739,1122.72 912.873,1239.42 879.785,1345.09 C810.851,1565.22 634.339,1727.5 409.175,1782.69 C239.068,1816.44 72.2974,1793.23 -68.012,1700.95 C-214.103,1611.69 -313.097,1464.66 -352.631,1297.58 C-358.946,1271.43 -363.882,1240.88 -367.44,1205.92 C-391.678,1237.01 -413.158,1259.29 -431.881,1272.76 C-690.178,1510.95 -1100.52,1493.65 -1334.31,1236.73 C-1490.54,1071.78 -1546,832.033 -1477.06,611.896 C-1443.98,506.23 -1384.47,408.836 -1302.69,332.922 C-1282.58,315.045 -1261.1,292.764 -1230.82,273.241 C-1273.2,269.639 -1299.62,261.366 -1326.03,253.094 C-1665.04,146.936 -1852.54,-211.512 -1746.38,-550.524 C-1640.22,-889.535 -1281.77,-1077.03 -942.761,-970.869 C-916.344,-962.597 -892.685,-945.52 -853.06,-933.112 C-866.802,-966.422 -876.141,-998.353 -878.053,-1023.12 C-901.934,-1132.13 -895.262,-1246.06 -862.174,-1351.73 C-793.24,-1571.87 -612.325,-1732.77 -394.322,-1780.53 C-49.9718,-1861.24 288.149,-1644.17 368.864,-1299.82 Z M-365.295,-113.216 C-430.092,93.7129 -315.178,313.407 -108.249,378.205 C98.6805,443.003 322.777,329.467 387.575,122.538 C452.373,-84.3915 337.458,-304.086 126.126,-370.262 C-85.2054,-436.439 -300.497,-320.145 -365.295,-113.216 Z " fill="#90bcd5" fill-opacity="1.00" filter="url(#N1zGdBXT)" />		</g>	</svg>