<?xml version="1.0" encoding="utf-8" ?>	<!-- Generator: Assembly 2.4 - http://assemblyapp.co -->	<svg version="1.1" xmlns="http://www.w3.org/2000/svg" xmlns:xlink="http://www.w3.org/1999/xlink" width="50.00" height="50.00" viewBox="0 0 250.0 250.0">		<g id="document" transform="scale(0.06103515625 0.06103515625) translate(2048.0 2048.0)">			<defs>				<filter id="H8ezfMBR" x="0.00%" y="0.00%" width="104.93%" height="104.93%" filterUnits="objectBoundingBox">					<feOffset dx="17.62" dy="17.62" in="SourceAlpha" result="shadowOffsetOuter1" />					<feGaussianBlur stdDeviation="6.79" in="shadowOffsetOuter1" result="shadowBlurOuter1" />					<feFlood flood-color="#000000" flood-opacity="0.15" />					<feComposite in2="shadowBlurOuter1" operator="in" />					<feMerge>						<feMergeNode />						<feMergeNode in="SourceGraphic" />					</feMerge>				</filter>			</defs>			<path d="M-16.1317,326.29 C-188.469,296.111 -303.549,132.168 -273.369,-40.1688 C-243.19,-212.506 -79.2475,-327.586 93.0897,-297.406 C265.427,-267.227 380.507,-103.285 350.327,69.0527 C320.148,241.39 156.206,356.47 -16.1317,326.29 Z " fill="#b7609e" fill-opacity="1.00" filter="url(#H8ezfMBR)" />			<defs>				<filter id="j2EOGowY" x="0.00%" y="0.00%" width="105.95%" height="105.96%" filterUnits="objectBoundingBox">					<feOffset dx="128.82" dy="128.82" in="SourceAlpha" result="shadowOffsetOuter1" />					<feGaussianBlur stdDeviation="49.66" in="shadowOffsetOuter1" result="shadowBlurOuter1" />					<feFlood flood-color="#000000" flood-opacity="0.15" />					<feComposite in2="shadowBlurOuter1" operator="in" />					<feMerge>						<feMergeNode />						<feMergeNode in="SourceGraphic" />					</feMerge>				</filter>			</defs>			<path d="M651.417,-1174.2 C611.195,-1048.21 446.838,-685.08 289.649,-397.866 C538.062,-613.454 864.502,-850.291 981.527,-908.036 C1196.92,-1021.82 1581.92,-1184.04 1717.35,-937.705 C1847.69,-695.606 1497.93,-456.635 1287.2,-343.28 C1170.6,-280.871 793.645,-133.494 476.877,-48.0724 C808.124,-26.6249 1204.28,35.9262 1325.6,76.5747 C1557.63,144.73 1944.52,311.619 1860.26,573.345 C1776.01,835.072 1364.57,759.806 1132.55,691.651 C1006.56,651.429 643.425,487.072 356.212,329.882 C571.8,578.296 808.637,904.736 866.381,1021.76 C980.163,1237.15 1142.39,1622.16 896.051,1757.59 C653.952,1887.92 414.981,1538.16 301.626,1327.44 C239.216,1210.84 91.8402,833.879 6.41818,517.111 C-20.1211,844.119 -82.6722,1240.28 -122.894,1366.26 C-195.714,1598.72 -357.938,1985.18 -619.665,1900.93 C-881.391,1816.67 -806.125,1405.24 -737.97,1173.21 C-697.748,1047.22 -533.391,684.086 -376.202,396.872 C-624.615,612.46 -951.055,849.298 -1068.08,907.042 C-1283.47,1020.82 -1668.48,1183.05 -1803.91,936.711 C-1934.24,694.612 -1584.48,455.642 -1373.75,342.286 C-1257.16,279.877 -880.198,132.501 -563.43,47.0787 C-890.439,20.5394 -1286.6,-42.0117 -1412.58,-82.2334 C-1645.04,-155.053 -2031.5,-317.277 -1947.24,-579.004 C-1862.99,-840.731 -1451.55,-765.465 -1228.85,-696.456 C-1102.87,-656.234 -739.735,-491.877 -452.521,-334.688 C-668.11,-583.102 -904.947,-909.541 -962.691,-1026.57 C-1066.72,-1238.14 -1228.94,-1623.15 -987.269,-1758.15 C-745.17,-1888.49 -506.199,-1538.73 -392.844,-1328 C-330.435,-1211.4 -183.058,-834.446 -97.6363,-517.678 C-71.0971,-844.687 -8.54595,-1240.85 31.6758,-1366.83 C104.496,-1599.29 266.72,-1985.75 528.446,-1901.49 C803.742,-1823.18 723.81,-1411.32 651.417,-1174.2 Z M65.3848,-226.823 C-74.5953,-265.765 -211.987,-224.974 -260.258,-84.1404 C-314.049,47.7896 -241.427,224.606 -101.021,268.213 C39.3862,311.82 185.653,213.768 205.934,75.4949 C240.637,-59.3934 201.127,-182.79 65.3848,-226.823 Z " fill="#e6beff" fill-opacity="1.00" filter="url(#j2EOGowY)" />		</g>	</svg>